HIERARCHY
ROOT base
{
	OFFSET 0.0 0.0 0.0
	CHANNELS 6 Xposition Yposition Zposition Zrotation Yrotation Xrotation
	JOINT root
	{
		OFFSET 0 0 0
		CHANNELS 6 Xposition Yposition Zposition Zrotation Yrotation Xrotation
		JOINT chest
		{
			OFFSET 0 4.72302 0
			CHANNELS 3 Zrotation Yrotation Xrotation
			JOINT neck
			{
				OFFSET 0 4.47788 0
				CHANNELS 3 Zrotation Yrotation Xrotation
				End Site
				{
					OFFSET 0.0 0.0 0.0
				}
			}
			JOINT right_shoulder
			{
				OFFSET -0.481 4.87 3.6622
				CHANNELS 3 Zrotation Yrotation Xrotation
				JOINT right_elbow
				{
					OFFSET 0 -5.49576 0
					CHANNELS 3 Zrotation Yrotation Xrotation
					JOINT right_wrist
					{
						OFFSET 0 -5.17894 0
						CHANNELS 3 Zrotation Yrotation Xrotation
						End Site
						{
							OFFSET 0.0 0.0 0.0
						}
					}
				}
			}
			JOINT left_shoulder
			{
				OFFSET -0.481 4.87 -3.6622
				CHANNELS 3 Zrotation Yrotation Xrotation
				JOINT left_elbow
				{
					OFFSET 0 -5.49576 0
					CHANNELS 3 Zrotation Yrotation Xrotation
					JOINT left_wrist
					{
						OFFSET 0 -5.17894 0
						CHANNELS 3 Zrotation Yrotation Xrotation
						End Site
						{
							OFFSET 0.0 0.0 0.0
						}
					}
				}
			}
		}
		JOINT right_hip
		{
			OFFSET 0 0 1.69774
			CHANNELS 3 Zrotation Yrotation Xrotation
			JOINT right_knee
			{
				OFFSET 0 -8.43092 0
				CHANNELS 3 Zrotation Yrotation Xrotation
				JOINT right_ankle
				{
					OFFSET 0 -8.1974 0
					CHANNELS 3 Zrotation Yrotation Xrotation
					End Site
					{
						OFFSET 0.0 0.0 0.0
					}
				}
			}
		}
		JOINT left_hip
		{
			OFFSET 0 0 -1.69774
			CHANNELS 3 Zrotation Yrotation Xrotation
			JOINT left_knee
			{
				OFFSET 0 -8.43092 0
				CHANNELS 3 Zrotation Yrotation Xrotation
				JOINT left_ankle
				{
					OFFSET 0 -8.1974 0
					CHANNELS 3 Zrotation Yrotation Xrotation
					End Site
					{
						OFFSET 0.0 0.0 0.0
					}
				}
			}
		}
	}
	JOINT red_arrow
	{
		OFFSET 0 0 0
		CHANNELS 3 Zrotation Yrotation Xrotation
		End Site
		{
			OFFSET 0.0 0.0 0.0
		}
	}
	JOINT blue_arrow
	{
		OFFSET 0 0 0
		CHANNELS 3 Zrotation Yrotation Xrotation
		End Site
		{
			OFFSET 0.0 0.0 0.0
		}
	}
}
MOTION
Frames: 11
Frame Time: 0.0333333333333333
0 18.08466 0 0 0 0 0 0 0 0 -90 0 0 0 0 0 0 0 0 0 -90 0 0 0 0 0 0 0 0 90 0 0 0 0 0 0 0 0 0 0 0 0 0 0 0 0 0 0 0 0 0 0 0 0 0 0 0 0 0 0
-0.369764941930771 0 -0.0164310395717621 0 -0.00469040690246165 0 0 17.9330717563629 0 -3.81236493013575 0 2.83904444949852 -1.96039428112889 0.196625694504615 1.02864237541249 -16.0621613936715 -4.35245839119385 2.18937241832029 11.371679988401 -10.7626357548962 -15.4634084753377 12.4978118413976 0 0 0 0 0 9.91210976329603 -10.5753993134635 15.7010519623248 1.75631783138484 0 0 0 0 0 -0.198500393016165 -0.540869975501193 -2.6424038502672 5.3947082958948E-05 0 0 -1.77408472016056 -9.39347459813358 0.816605082804694 3.1247741138041 -0.541548044058217 -1.72818905517707 6.79589739632583E-05 0 0 -4.54347709617122 8.11254239996051 0.437290705589316 0 0 0 0 0 0
-0.672956928610802 0 0.00864436980336904 0 0.0755622844721259 0 0 17.8830036401749 0 -4.75183481982226 1.51956262764041 1.82273002199343 -6.86742655547559 0.390707698035154 2.46722434754089 -17.4413455029953 -6.16531323862948 3.91801263773904 8.94451066291725 -11.4463869552539 -32.2356250973708 6.98231071632045 0 0 0 0 0 -0.738406536736425 -16.593179105684 30.2878887522596 -5.42791780570137E-05 0 0 0 0 0 1.58521250438265 0.536265931095189 -1.57038687208583 0.000585014363128145 0 0 -1.7394302641277 -11.9636578841742 0.639562029194811 7.71316334644589 1.92200592237963 -1.15562607137539 0.000180034293604963 0 0 0.111946651948506 5.37027559504942 0.105076869449178 0 0 0 0 0 0
-1.11950073838234 0 0.0226574303582311 0 0.265365019479157 0 0 17.6880999565125 0 -7.18336462449753 3.57802049212238 0.769030045027634 -11.6078733783087 0.248221927490617 4.26480952665079 -17.5703443199472 -7.99374215952208 5.3303512931794 5.63911503368172 -15.5895613853752 -49.3192588887546 -0.0905679348683988 0 0 0 0 0 -14.1526811295229 -15.0971847721636 44.9093034662538 -3.48533833103506E-06 0 0 0 0 0 5.07462610656379 -0.710164682115978 -0.71380616945445 0.000571809375894967 0 0 1.42464619055001 -12.8099031171885 -0.286182950533643 15.5846373085258 5.44689000560367 -1.51032556044027 1.86341722939976E-05 0 0 5.19849234167778 3.72175783451237 -0.821509821065349 0 0 0 0 0 0
-1.77693495452404 0 0.0959910780191421 0 0.511201136648174 0 0 17.6111089110374 0 -10.9850133702118 4.58567024841223 -0.931369994102075 -17.9155995454509 0.695903912137825 6.13501922479773 -15.6380818972352 -8.47920878281043 6.37119279394546 2.14631299164741 -25.7251473950458 -61.2828492690491 -1.80650132041938E-05 0 0 0 0 0 -22.6115811325219 -6.74859621612694 52.5637961802747 -0.081375954328803 0 0 0 0 0 13.298887220996 -4.16418740515694 0.466454843060166 -4.88109394505936 0 0 2.64705375368278 -10.7183511856178 -0.596333255281503 26.1677190326834 10.2450832363581 -1.28307103561631 0.0345059822847722 0 0 5.59909224317081 2.24990029825174 -0.990643000274013 0 0 0 0 0 0
-2.46712608337402 0 0.110858446359634 0 0.709210010753565 0 0 17.5120870471001 0 -14.4552255487684 3.64339568241007 -1.33288384603319 -24.3505711315892 1.01631992636854 5.55721069134752 -13.6210405624277 -7.47000786199576 7.05140151817134 0.291045315780171 -36.455181897835 -67.3077825103408 -1.69532571852863E-06 0 0 0 0 0 -26.70636715305 6.75624491203205 53.5507789215231 -1.07894372730284E-05 0 0 0 0 0 25.1343877820512 -5.43713782506823 -0.485426145310671 -17.1947587637916 0 0 4.43831398457326 -5.3666224835394 -0.0388317624020152 37.6252332083466 13.858451045625 -0.914130347325467 -2.48447362662932 0 0 -3.19684557997109 0.464987419298918 1.12783891363913 0 0 0 0 0 0
-3.08452143669128 0 0.0651401754468679 0 0.835801595973301 0 0 17.2602009177208 0 -17.4915020327488 2.29414722657797 -1.13855116704634 -29.7907715731461 0.547833596151668 4.35807463022856 -10.2281788353649 -5.39191876304714 7.02930102250728 -2.5055794087523 -46.3052288493612 -65.3577311773097 -1.51318731080682E-06 0 0 0 0 0 -28.9408387402863 20.970648732992 47.7171391261881 -0.00356630131618717 0 0 0 0 0 38.9615599841204 -3.62988139893574 -1.75138512579853 -33.8215907131912 0 0 3.00990243486242 -1.34211271532865 0.92776825287258 49.7744393291691 13.3205326248462 0.186121707100303 -10.7361882336882 0 0 -14.3217730928527 -0.416970224180082 3.13605750044723 0 0 0 0 0 0
-3.55663970708847 0 -0.0684034389443696 0 0.873661738087863 0 0 16.7745421767235 0 -19.7088708974087 0.677206458989447 -0.08323317601051 -33.7087136714751 -0.392785319973962 2.94395719696112 -5.35048845964392 -3.08841202806611 5.4894877966077 -9.53089047684294 -54.277972508234 -54.9264339869892 -3.33130056920163E-08 0 0 0 0 0 -31.3427128275506 34.9227905130242 38.8333182121122 -4.870823572493E-07 0 0 0 0 0 53.765044056475 1.37125834034118 -2.34872286043874 -51.5621908746935 0 0 6.12077343241228 -1.63680764823027 -1.2709581991256 59.6272665365427 9.83694291242287 0.959778903470383 -24.4808442778825 0 0 -21.5001567321859 -0.587055367120622 4.06373817062983 0 0 0 0 0 0
-3.81824983358383 0 -0.215693935379386 0 0.829408452648296 0 0 16.0897336483002 0 -21.3236610430507 -0.783258796916216 0.716553327034741 -34.7591015120923 -1.53353490519824 2.60844120633483 -0.231386665454419 -1.32611997494088 3.25478031375283 -21.1283758340766 -54.8350586894285 -35.9956718698425 -3.33130056920163E-08 0 0 0 0 0 -34.2183171181483 45.0205687800496 27.9581612868945 -3.17363411253212E-08 0 0 0 0 0 67.229731801141 5.48780902261751 -2.0856991098901 -67.0817945181206 0 0 11.6946235387028 -1.98093503526584 -4.81062856734865 65.307714620289 5.99249548084136 1.5757034896094 -36.8930618961488 0 0 -23.5299065190144 -0.51846273855888 4.10483164288712 0 0 0 0 0 0
-3.93756158351898 0 -0.3352499935776 0 0.701295101231699 0 0 15.2309356451035 0 -21.7234603085148 -2.26146908850074 1.0312076174806 -35.185013201667 -2.42898445159704 2.63527296727006 4.50380629483446 0.0743161728117128 1.26844703578552 -25.229944546263 -51.0047397986888 -22.1049081659 -0.000732504229509979 0 0 0 0 0 -32.9449270836927 55.4353208579635 18.5960279779137 -0.000517803398630427 0 0 0 0 0 76.5496759975164 8.56487424487619 -1.1274032705383 -78.2742889072371 0 0 16.0454164718456 -1.39228808691829 -7.39144017929555 70.7025024243842 3.47438806206097 2.4416461526065 -48.883913191686 0 0 -11.1638146820915 -1.89579087663082 1.28259481740144 0 0 0 0 0 0
-3.96767193078995 0 -0.46012960895896 0 0.478213868745254 0 0 14.306595659256 0 -20.9787129071113 -3.95850998015405 1.55947837305022 -34.0724741862089 -2.29152113135018 2.34493235907674 7.9586905353258 1.45865000149841 -0.740447107665446 -22.6934707176514 -46.0643245026848 -15.2550164887129 -1.48546763175818E-07 0 0 0 0 0 -25.578793389251 61.260984660522 14.4533252758548 -6.7349104129754E-09 0 0 0 0 0 81.6512903397568 10.1777441940756 -0.525339216840823 -82.9620184893461 0 0 17.5079478657992 -0.697856064826962 -8.29655625813004 75.0864429923645 2.74867387576946 2.96446026687495 -58.7147991244767 0 0 0.482615880562669 0.025303622542539 0.449120397305549 0 0 0 0 0 0
